<?xml version="1.0" encoding="UTF-8"?>
<svg xmlns="http://www.w3.org/2000/svg" version="1.1" viewBox="0 0 222.9 207.5">
  <defs>
    <style>
      .cls-1 {
        fill: #fff;
      }
    </style>
  </defs>
  <!-- Generator: Adobe Illustrator 28.7.0, SVG Export Plug-In . SVG Version: 1.2.0 Build 136)  -->
  <g>
    <g id="Layer_1">
      <g>
        <g>
          <circle class="cls-1" cx="111.5" cy="36" r="12"/>
          <path class="cls-1" d="M53.8,147.3v2.1c17-9.8,36.7-15.4,57.7-15.4s40.8,5.6,57.8,15.5v-2.1c-16.3-11.7-36.2-18.6-57.8-18.6s-41.4,6.9-57.7,18.5Z"/>
          <path class="cls-1" d="M57,100.1c0-9.4,2.6-18.3,7.2-25,4.8-6.8,11.2-10.6,18-10.7,0,0,0,0,.1,0,0,0,0,0,0,0s0,0,0,0c.5,0,1.1,0,1.6,0,.4-.6.8-1.1,1.2-1.7,1-1.4,2.1-2.7,3.2-3.9-8.1-2-16.1-1.2-22.6,2.9-12.2,7.7-15.3,24.4-8.8,40.7,0-.8,0-1.6,0-2.4Z"/>
          <path class="cls-1" d="M74.1,54.6c4.5,0,8.2-3.7,8.2-8.2s-3.7-8.2-8.2-8.2-8.2,3.7-8.2,8.2,3.7,8.2,8.2,8.2Z"/>
          <path class="cls-1" d="M138.8,64.5c.5,0,1.1,0,1.6,0,0,0,0,0,0,0s0,0,0,0c0,0,0,0,.1,0,6.9,0,13.2,3.8,18,10.7,4.7,6.7,7.2,15.6,7.2,25s0,1.6,0,2.4c6.5-16.2,3.4-33-8.8-40.7-6.5-4.1-14.5-4.9-22.6-2.9,1.1,1.2,2.2,2.5,3.2,3.9.4.6.8,1.1,1.2,1.7Z"/>
          <path class="cls-1" d="M148.8,54.6c4.5,0,8.2-3.7,8.2-8.2s-3.7-8.2-8.2-8.2-8.2,3.7-8.2,8.2,3.7,8.2,8.2,8.2Z"/>
          <path class="cls-1" d="M168.2,134.4c-10.5-11.1-6.4-21.6-6.2-30.1.3-11.5-1.7-18.3-4.5-23.7.9,8.1-1.8,18-8.2,27.1-1.1,1.6-2.4,3.2-3.6,4.6h0c-1.5-.5-3.1-1-4.6-1.5,1.4-4.8,2.1-10.1,2.1-15.6,0-23.9-14.2-43.3-31.6-43.3s-31.6,19.4-31.6,43.3.7,10.7,2.1,15.6c-1.6.5-3.1,1-4.6,1.5-1.3-1.4-2.5-3-3.6-4.6-6.4-9.1-9.1-19-8.2-27.1-2.9,5.4-4.8,12.2-4.5,23.7.2,8.5,4.3,19-6.2,30.1-.3.3-.7.7-1.1,1v2.5c16.3-11.2,36.3-17.8,57.8-17.8s41.4,6.6,57.8,17.8v-2.5h0c-.4-.3-.7-.7-1.1-1ZM92.6,108.2c-.8-4-1.3-8.4-1.3-13,0-20.2,9-36.6,20.2-36.6s20.2,16.4,20.2,36.6-.5,9-1.3,13c-6.1-1.1-12.4-1.7-18.9-1.7s-12.8.6-18.9,1.7Z"/>
        </g>
        <path class="cls-1" d="M195.5,183.3c1.1,0,2.1-.1,3.4-.3v-3.9c-3.8.7-4.3-.5-4.3-1.6v-10h4.3v-4h-4.3v-5.8h-4.9v5.8h-3v4h3v11.2c0,3.7,2.7,4.6,5.7,4.6ZM156.2,183.5c3.1,0,4.8-1.4,5.5-2.4v2.1h4.8v-19.6h-4.9v12c0,2.2-1.3,3.8-3.8,3.8s-3.5-1.3-3.5-3.6v-12.2h-4.9v13.3c0,3.6,2.2,6.7,6.8,6.7ZM135.8,183.2h4.9v-10.7c0-3.1,1.8-4.3,4.2-4.3h1.6v-4.7h-.9c-2.4,0-4.1,1.1-5.1,2.9v-2.9h-4.8v19.6ZM124.7,183.2h5v-21.1h7.7v-4.3h-20.3v4.3h7.7v21.1ZM96.3,164.6c2-.9,3.8-2.5,3.8-4.6s-1.4-2.9-2.9-2.9-2.9,1.3-2.9,2.8.8,2.3,1.9,2.6v2.1ZM85,178.3c-2.7,0-4.3-1.8-4.3-5.5s1.6-5.5,4.3-5.5,4.3,3,4.3,5.4-.6,5.6-4.3,5.6ZM84.9,190.3c2.9,0,5-.7,6.6-1.9,1.8-1.3,2.7-3.5,2.7-6v-18.9h-4.7v2.2c-.8-1.4-2.6-2.4-5.2-2.4-4,0-8.4,2.3-8.4,9.5s4.3,9.5,8.2,9.5,4.4-1,5.3-2.4v3c0,2.5-1.9,3.5-4.3,3.5-3.6,0-4-2.2-4-2.9h-4.9c0,2.7,1.7,6.8,8.8,6.8ZM97.3,177h4.9c0,2,1.6,2.9,3.9,2.9s3.8-.7,3.8-2.3-.8-1.7-2-1.9l-5.1-.9c-3.4-.6-5.1-2.3-5.1-5.5s2.7-6.1,8.4-6.1,8.1,4.2,8.1,6h-4.8c0-1.6-1.5-2.4-3.5-2.4s-3.4.5-3.4,2.1.8,1.6,2,1.8l5,.8c3.1.5,5.3,2.1,5.3,5.5s-2.5,6.5-8.9,6.5-8.6-3.4-8.7-6.5ZM55.6,183.2h4.9v-11.4c0-2.8,1.8-4.3,4-4.3s3.5,1.3,3.5,3.6v12.1h4.9v-13.4c0-4-2.7-6.6-6.9-6.6s-4.5,1-5.7,2.6v-2.3h-4.8v19.6ZM49.5,162.6c1.6,0,2.9-1.3,2.9-2.8s-1.3-2.8-2.9-2.8-2.9,1.3-2.9,2.8,1.3,2.8,2.9,2.8ZM47,183.2h4.9v-19.6h-4.9v19.6ZM24,183.2h5v-7.6l3-3.5,7.5,11h5.9l-10-14.9,9.6-10.5h-5.8l-10.2,11.6v-11.6h-5v25.4ZM168.6,177h4.9c0,2,1.6,2.9,3.9,2.9s3.8-.7,3.8-2.3-.8-1.7-2-1.9l-5.1-.9c-3.4-.6-5.1-2.3-5.1-5.5s2.7-6.1,8.4-6.1,8.1,4.2,8.1,6h-4.8c0-1.6-1.5-2.4-3.5-2.4s-3.4.5-3.4,2.1.8,1.6,2,1.8l5,.8c3.1.5,5.3,2.1,5.3,5.5s-2.5,6.5-8.9,6.5-8.6-3.4-8.7-6.5Z"/>
      </g>
    </g>
  </g>
</svg>