<?xml version="1.0" encoding="UTF-8" standalone="no"?>
<!DOCTYPE svg PUBLIC "-//W3C//DTD SVG 1.1//EN" "http://www.w3.org/Graphics/SVG/1.1/DTD/svg11.dtd">
<svg width="100%" height="100%" viewBox="0 0 3420 1092" version="1.1" xmlns="http://www.w3.org/2000/svg" xmlns:xlink="http://www.w3.org/1999/xlink" xml:space="preserve" xmlns:serif="http://www.serif.com/" style="fill-rule:evenodd;clip-rule:evenodd;stroke-linejoin:round;stroke-miterlimit:2;">
    <rect x="1203.9" y="0" width="18.3" height="1092" style="fill:white;"/>
    <g>
        <path d="M1384.3,441.4L1534,441.4L1534,423.6L1365.8,423.6L1365.8,667.7L1538.1,667.7L1538.1,649.6L1384.2,649.6L1384.2,553.5L1527,553.5L1527,536.4L1384.3,536.4L1384.3,441.4ZM1768.3,622.1C1747.4,642.6 1719.6,653.1 1692.1,653.1C1621.8,653.1 1585.6,603.7 1584.9,546.6C1584.6,488.1 1621.1,438 1692.1,438C1719.6,438 1747.1,448.1 1768,469L1780.9,457.9C1756.5,433.5 1724.1,421.4 1692.1,421.4C1608.5,421.4 1566.1,482.3 1566.8,547.4C1567.2,613.2 1610,670.6 1692.1,670.6C1724.1,670.6 1756.5,658.4 1780.9,634.1L1768.3,622.1ZM1937.1,420.1C1854.9,420.1 1814.2,480 1814.2,545.4C1814.2,610.8 1855.3,671.8 1937.1,671.8C2018.9,671.8 2059.6,610.2 2060,546.1C2060.4,480.4 2019.3,420.1 1937.1,420.1M1937.1,437.5C2007.1,437.5 2041.9,489.4 2041.9,545.8C2041.9,602.2 2006.7,654.4 1937.1,654.4C1867.5,654.4 1833,600.8 1832.7,545.8C1832.3,488.4 1867.1,437.5 1937.1,437.5M2104.9,423.6L2104.9,667.7L2123.7,667.7L2123.7,466.2L2288,667.7L2295.3,667.7L2295.3,423.6L2276.9,423.6L2276.9,625.5L2112.9,423.6L2104.9,423.6ZM2465.6,420.1C2383.5,420.1 2342.7,480 2342.7,545.4C2342.7,610.8 2383.8,671.8 2465.6,671.8C2547.4,671.8 2588.1,610.2 2588.5,546.1C2588.8,480.4 2547.8,420.1 2465.6,420.1M2465.6,437.5C2535.6,437.5 2570.4,489.4 2570.4,545.8C2570.4,602.2 2535.2,654.4 2465.6,654.4C2396,654.4 2361.5,600.8 2361.2,545.8C2360.8,488.4 2395.6,437.5 2465.6,437.5M2845.7,667.7L2864.1,667.7L2864.1,423.6L2841.2,423.6L2748.9,565.8L2655.6,423.6L2633.3,423.6L2633.3,667.7L2652.1,667.7L2652.1,450.8L2746.1,593.7L2752.4,593.7L2845.7,450.8L2845.7,667.7ZM2936.6,423.6L2918.1,423.6L2918.1,667.6L2936.6,667.6L2936.6,423.6ZM3178.9,622.1C3158,642.6 3130.2,653.1 3102.7,653.1C3032.4,653.1 2996.2,603.7 2995.5,546.6C2995.1,488.1 3031.7,438 3102.7,438C3130.2,438 3157.7,448.1 3178.6,469L3191.5,457.9C3167.1,433.5 3134.8,421.4 3102.7,421.4C3019.1,421.4 2976.7,482.3 2977.4,547.4C2977.7,613.2 3020.6,670.6 3102.7,670.6C3134.7,670.6 3167.1,658.4 3191.5,634.1L3178.9,622.1ZM3412.5,461.9C3388.5,426 3358.2,420.5 3323.4,420.5C3283.3,420.5 3229.8,436.5 3230.8,488.1C3230.8,533 3276.4,542.1 3321,550.7C3361,558.4 3401.4,566.4 3401.1,602.9C3401.1,646.1 3353.4,654.4 3323.5,654.4C3293.6,654.4 3255.2,639.8 3240.3,610.2L3223.6,618.6C3242.4,655.8 3285.6,671.5 3323.5,671.5C3364.2,671.5 3419.6,658.3 3419.9,603.3C3419.9,550.7 3371.2,542.4 3324.2,533.3C3283.1,525.6 3249.7,518.3 3249.7,487.4C3249.7,448.4 3294.9,438 3323.5,438C3351,438.3 3379.5,442.5 3397.3,471.1L3412.5,461.9Z" style="fill:white;fill-rule:nonzero;"/>
        <path d="M849.4,424L826.6,424L826.6,668L849.4,668L849.4,424ZM373.8,424L382,448L444.1,630.2L514.4,424L540.2,424L457,668L431.2,668L369,485.8L306.9,668.1L281.1,668.1L198,424L223.8,424L294,630.3L364.4,424L373.8,424ZM613.9,424L591.1,424L591.1,668L613.9,668L613.9,596.3L687.6,596.3C734.3,596.3 772.6,558.1 772.6,511.4L772.6,509C772.6,462.3 734.4,424.1 687.6,424.1L613.9,424ZM613.9,573.5L613.9,446.9L687.6,446.9C721.7,446.9 749.7,474.9 749.7,509L749.7,511.4C749.7,545.5 721.7,573.5 687.6,573.5L613.9,573.5Z" style="fill:white;fill-rule:nonzero;"/>
        <path d="M1018.3,647.9C1011.7,680.4 1001.8,712.3 988.8,742.8C976.1,772.8 960.4,801.7 942.2,828.7C924.1,855.5 903.3,880.7 880.4,903.6C857.5,926.5 832.3,947.3 805.6,965.4C778.6,983.7 749.7,999.4 719.7,1012C689.2,1024.9 657.3,1034.8 624.8,1041.5C591.5,1048.3 557.2,1051.8 522.9,1051.8C488.6,1051.8 454.3,1048.3 421,1041.5C388.5,1034.9 356.6,1024.9 326.1,1012C296.1,999.3 267.2,983.6 240.2,965.4C213.4,947.3 188.2,926.5 165.4,903.6C142.5,880.7 121.7,855.5 103.6,828.7C85.3,801.7 69.7,772.8 57,742.8C44.1,712.3 34.2,680.4 27.5,647.9C23.1,626.6 20.1,604.9 18.6,583L0.2,583C19.2,855.2 246,1070 522.9,1070C799.8,1070 1026.6,855.2 1045.6,583.1L1027.3,583.1C1025.7,604.9 1022.7,626.6 1018.3,647.9M27.5,444C34.1,411.5 44,379.6 57,349.1C69.7,319.1 85.4,290.2 103.6,263.2C121.7,236.4 142.5,211.2 165.4,188.3C188.3,165.4 213.5,144.6 240.3,126.5C267.3,108.2 296.2,92.6 326.2,79.9C356.7,67 388.6,57.1 421.1,50.4C454.4,43.6 488.7,40.1 523,40.1C557.3,40.1 591.6,43.6 624.9,50.4C657.4,57 689.3,66.9 719.8,79.9C749.8,92.6 778.7,108.3 805.7,126.5C832.5,144.6 857.7,165.4 880.5,188.3C903.4,211.2 924.2,236.4 942.3,263.2C960.6,290.2 976.3,319.1 988.9,349.1C1001.8,379.6 1011.7,411.5 1018.4,444C1022.8,465.3 1025.7,487 1027.3,508.9L1045.6,508.9C1026.6,236.8 799.8,22 522.9,22C246,22 19.2,236.8 0.2,508.9L18.6,508.9C20.1,487 23.1,465.4 27.5,444" style="fill:white;fill-rule:nonzero;"/>
    </g>
</svg>
