<?xml version="1.0" encoding="utf-8"?>
<!-- Generator: Adobe Illustrator 27.8.0, SVG Export Plug-In . SVG Version: 6.00 Build 0)  -->
<svg version="1.1" id="Layer_1" xmlns="http://www.w3.org/2000/svg" xmlns:xlink="http://www.w3.org/1999/xlink" x="0px" y="0px"
	 viewBox="0 0 3420 1092" style="enable-background:new 0 0 3420 1092;" xml:space="preserve">
<style type="text/css">
	.st0{fill:#666666;}
</style>
<rect x="1203.9" class="st0" width="18.3" height="1092"/>
<g>
	<path class="st0" d="M1384.3,441.4H1534v-17.8h-168.2v244.1h172.3v-18.1h-153.9v-96.1H1527v-17.1h-142.7V441.4L1384.3,441.4z
		 M1768.3,622.1c-20.9,20.5-48.7,31-76.2,31c-70.3,0-106.5-49.4-107.2-106.5c-0.3-58.5,36.2-108.6,107.2-108.6
		c27.5,0,55,10.1,75.9,31l12.9-11.1c-24.4-24.4-56.8-36.5-88.8-36.5c-83.6,0-126,60.9-125.3,126c0.4,65.8,43.2,123.2,125.3,123.2
		c32,0,64.4-12.2,88.8-36.5L1768.3,622.1L1768.3,622.1z M1937.1,420.1c-82.2,0-122.9,59.9-122.9,125.3s41.1,126.4,122.9,126.4
		s122.5-61.6,122.9-125.7C2060.4,480.4,2019.3,420.1,1937.1,420.1 M1937.1,437.5c70,0,104.8,51.9,104.8,108.3
		s-35.2,108.6-104.8,108.6s-104.1-53.6-104.4-108.6C1832.3,488.4,1867.1,437.5,1937.1,437.5 M2104.9,423.6v244.1h18.8V466.2
		L2288,667.7h7.3V423.6h-18.4v201.9l-164-201.9H2104.9L2104.9,423.6z M2465.6,420.1c-82.1,0-122.9,59.9-122.9,125.3
		s41.1,126.4,122.9,126.4s122.5-61.6,122.9-125.7C2588.8,480.4,2547.8,420.1,2465.6,420.1 M2465.6,437.5
		c70,0,104.8,51.9,104.8,108.3s-35.2,108.6-104.8,108.6s-104.1-53.6-104.4-108.6C2360.8,488.4,2395.6,437.5,2465.6,437.5
		 M2845.7,667.7h18.4V423.6h-22.9l-92.3,142.2l-93.3-142.2h-22.3v244.1h18.8V450.8l94,142.9h6.3l93.3-142.9V667.7L2845.7,667.7z
		 M2936.6,423.6h-18.5v244h18.5V423.6L2936.6,423.6z M3178.9,622.1c-20.9,20.5-48.7,31-76.2,31c-70.3,0-106.5-49.4-107.2-106.5
		c-0.4-58.5,36.2-108.6,107.2-108.6c27.5,0,55,10.1,75.9,31l12.9-11.1c-24.4-24.4-56.7-36.5-88.8-36.5c-83.6,0-126,60.9-125.3,126
		c0.3,65.8,43.2,123.2,125.3,123.2c32,0,64.4-12.2,88.8-36.5L3178.9,622.1L3178.9,622.1z M3412.5,461.9
		c-24-35.9-54.3-41.4-89.1-41.4c-40.1,0-93.6,16-92.6,67.6c0,44.9,45.6,54,90.2,62.6c40,7.7,80.4,15.7,80.1,52.2
		c0,43.2-47.7,51.5-77.6,51.5s-68.3-14.6-83.2-44.2l-16.7,8.4c18.8,37.2,62,52.9,99.9,52.9c40.7,0,96.1-13.2,96.4-68.2
		c0-52.6-48.7-60.9-95.7-70c-41.1-7.7-74.5-15-74.5-45.9c0-39,45.2-49.4,73.8-49.4c27.5,0.3,56,4.5,73.8,33.1L3412.5,461.9
		L3412.5,461.9z"/>
	<path class="st0" d="M849.4,424h-22.8v244h22.8V424L849.4,424z M373.8,424l8.2,24l62.1,182.2L514.4,424h25.8L457,668h-25.8
		L369,485.8l-62.1,182.3h-25.8L198,424h25.8L294,630.3L364.4,424H373.8L373.8,424z M613.9,424h-22.8v244h22.8v-71.7h73.7
		c46.7,0,85-38.2,85-84.9V509c0-46.7-38.2-84.9-85-84.9L613.9,424L613.9,424z M613.9,573.5V446.9h73.7c34.1,0,62.1,28,62.1,62.1v2.4
		c0,34.1-28,62.1-62.1,62.1H613.9z"/>
	<path class="st0" d="M1018.3,647.9c-6.6,32.5-16.5,64.4-29.5,94.9c-12.7,30-28.4,58.9-46.6,85.9c-18.1,26.8-38.9,52-61.8,74.9
		c-22.9,22.9-48.1,43.7-74.8,61.8c-27,18.3-55.9,34-85.9,46.6c-30.5,12.9-62.4,22.8-94.9,29.5c-33.3,6.8-67.6,10.3-101.9,10.3
		s-68.6-3.5-101.9-10.3c-32.5-6.6-64.4-16.6-94.9-29.5c-30-12.7-58.9-28.4-85.9-46.6c-26.8-18.1-52-38.9-74.8-61.8
		c-22.9-22.9-43.7-48.1-61.8-74.9c-18.3-27-33.9-55.9-46.6-85.9c-12.9-30.5-22.8-62.4-29.5-94.9c-4.4-21.3-7.4-43-8.9-64.9H0.2
		c19,272.2,245.8,487,522.7,487s503.7-214.8,522.7-486.9h-18.3C1025.7,604.9,1022.7,626.6,1018.3,647.9 M27.5,444
		c6.6-32.5,16.5-64.4,29.5-94.9c12.7-30,28.4-58.9,46.6-85.9c18.1-26.8,38.9-52,61.8-74.9s48.1-43.7,74.9-61.8
		c27-18.3,55.9-33.9,85.9-46.6c30.5-12.9,62.4-22.8,94.9-29.5c33.3-6.8,67.6-10.3,101.9-10.3s68.6,3.5,101.9,10.3
		c32.5,6.6,64.4,16.5,94.9,29.5c30,12.7,58.9,28.4,85.9,46.6c26.8,18.1,52,38.9,74.8,61.8c22.9,22.9,43.7,48.1,61.8,74.9
		c18.3,27,34,55.9,46.6,85.9c12.9,30.5,22.8,62.4,29.5,94.9c4.4,21.3,7.3,43,8.9,64.9h18.3C1026.6,236.8,799.8,22,522.9,22
		S19.2,236.8,0.2,508.9h18.4C20.1,487,23.1,465.4,27.5,444"/>
</g>
</svg>
